<mxfile host="app.diagrams.net" modified="2024-07-23T14:38:33.167Z" agent="Mozilla/5.0 (Windows NT 10.0; Win64; x64) AppleWebKit/537.36 (KHTML, like Gecko) Chrome/126.0.0.0 Safari/537.36" etag="jxdHEeG2onoaI3-7oM5H" version="24.7.1" type="github">
  <diagram name="第 1 页" id="WY7e-I092N28eT6Ba04r">
    <mxGraphModel dx="2209" dy="1481" grid="0" gridSize="10" guides="1" tooltips="1" connect="1" arrows="1" fold="1" page="0" pageScale="1" pageWidth="827" pageHeight="1169" background="none" math="0" shadow="0">
      <root>
        <mxCell id="0" />
        <mxCell id="1" parent="0" />
        <mxCell id="3fjzQiBei5Zrd4goEmmM-80" value="" style="rounded=1;whiteSpace=wrap;html=1;" vertex="1" parent="1">
          <mxGeometry x="218.5" y="293.5" width="127" height="107" as="geometry" />
        </mxCell>
        <mxCell id="3fjzQiBei5Zrd4goEmmM-93" value="" style="rounded=0;whiteSpace=wrap;html=1;dashed=1;strokeColor=#FF3333;" vertex="1" parent="1">
          <mxGeometry x="-136" y="-21.5" width="220" height="333" as="geometry" />
        </mxCell>
        <mxCell id="3fjzQiBei5Zrd4goEmmM-47" style="edgeStyle=orthogonalEdgeStyle;rounded=1;orthogonalLoop=1;jettySize=auto;html=1;exitX=0.5;exitY=1;exitDx=0;exitDy=0;entryX=0.5;entryY=0;entryDx=0;entryDy=0;" edge="1" parent="1" source="3fjzQiBei5Zrd4goEmmM-34" target="3fjzQiBei5Zrd4goEmmM-42">
          <mxGeometry relative="1" as="geometry">
            <mxPoint x="-27" y="61.5" as="targetPoint" />
          </mxGeometry>
        </mxCell>
        <mxCell id="3fjzQiBei5Zrd4goEmmM-34" value="&lt;font face=&quot;Times New Roman&quot;&gt;ConditionalInstanceNorm2dPlus&lt;/font&gt;" style="rounded=1;whiteSpace=wrap;html=1;" vertex="1" parent="1">
          <mxGeometry x="-121.5" y="-7.5" width="189" height="34" as="geometry" />
        </mxCell>
        <mxCell id="3fjzQiBei5Zrd4goEmmM-35" value="&lt;font face=&quot;Times New Roman&quot;&gt;ELU&lt;/font&gt;" style="rounded=1;whiteSpace=wrap;html=1;" vertex="1" parent="1">
          <mxGeometry x="476" y="-238.5" width="69" height="28" as="geometry" />
        </mxCell>
        <mxCell id="3fjzQiBei5Zrd4goEmmM-36" value="&lt;font face=&quot;Times New Roman&quot;&gt;Conv(3.3)&lt;/font&gt;" style="rounded=1;whiteSpace=wrap;html=1;" vertex="1" parent="1">
          <mxGeometry x="665.5" y="-243.5" width="69" height="36" as="geometry" />
        </mxCell>
        <mxCell id="3fjzQiBei5Zrd4goEmmM-37" value="&lt;font color=&quot;#ff0000&quot;&gt;&lt;span style=&quot;font-size: 11px;&quot;&gt;InC=&lt;/span&gt;&lt;/font&gt;&lt;div&gt;&lt;font color=&quot;#ff0000&quot;&gt;&lt;span style=&quot;font-size: 11px;&quot;&gt;OutC=&lt;/span&gt;&lt;/font&gt;&lt;/div&gt;" style="text;html=1;align=center;verticalAlign=middle;resizable=0;points=[];autosize=1;strokeColor=none;fillColor=none;fontSize=16;rounded=1;labelBackgroundColor=none;" vertex="1" parent="1">
          <mxGeometry x="733" y="-251" width="50" height="50" as="geometry" />
        </mxCell>
        <mxCell id="3fjzQiBei5Zrd4goEmmM-38" value="&lt;font color=&quot;#ff0000&quot; face=&quot;Times New Roman&quot; style=&quot;font-size: 20px;&quot;&gt;Res1&lt;/font&gt;" style="text;html=1;align=center;verticalAlign=middle;resizable=0;points=[];autosize=1;strokeColor=none;fillColor=none;fontSize=16;rounded=1;labelBackgroundColor=none;" vertex="1" parent="1">
          <mxGeometry x="-56" y="-120.5" width="58" height="36" as="geometry" />
        </mxCell>
        <mxCell id="3fjzQiBei5Zrd4goEmmM-58" style="edgeStyle=orthogonalEdgeStyle;rounded=1;orthogonalLoop=1;jettySize=auto;html=1;exitX=0.5;exitY=1;exitDx=0;exitDy=0;entryX=0.5;entryY=0;entryDx=0;entryDy=0;" edge="1" parent="1" source="3fjzQiBei5Zrd4goEmmM-39" target="3fjzQiBei5Zrd4goEmmM-53">
          <mxGeometry relative="1" as="geometry" />
        </mxCell>
        <mxCell id="3fjzQiBei5Zrd4goEmmM-39" value="&lt;font face=&quot;Times New Roman&quot;&gt;Conv(3.3)&lt;/font&gt;" style="rounded=1;whiteSpace=wrap;html=1;" vertex="1" parent="1">
          <mxGeometry x="-61.5" y="92.5" width="69" height="37" as="geometry" />
        </mxCell>
        <mxCell id="3fjzQiBei5Zrd4goEmmM-40" value="&lt;font style=&quot;font-size: 9px;&quot;&gt;&lt;span style=&quot;font-size: 9px;&quot;&gt;InC=ngf&lt;/span&gt;&lt;/font&gt;&lt;div style=&quot;font-size: 9px;&quot;&gt;&lt;font style=&quot;font-size: 9px;&quot;&gt;&lt;span style=&quot;font-size: 9px;&quot;&gt;OutC=ngf&lt;/span&gt;&lt;/font&gt;&lt;/div&gt;" style="text;html=1;align=center;verticalAlign=middle;resizable=0;points=[];autosize=1;strokeColor=none;fillColor=none;fontSize=9;rounded=1;labelBackgroundColor=none;" vertex="1" parent="1">
          <mxGeometry y="95" width="57" height="34" as="geometry" />
        </mxCell>
        <mxCell id="3fjzQiBei5Zrd4goEmmM-41" value="&lt;font face=&quot;Times New Roman&quot;&gt;ConditionalInstanceNorm2dPlus&lt;/font&gt;" style="rounded=1;whiteSpace=wrap;html=1;" vertex="1" parent="1">
          <mxGeometry x="220" y="-243" width="189" height="34" as="geometry" />
        </mxCell>
        <mxCell id="3fjzQiBei5Zrd4goEmmM-49" style="edgeStyle=orthogonalEdgeStyle;rounded=1;orthogonalLoop=1;jettySize=auto;html=1;exitX=0.5;exitY=1;exitDx=0;exitDy=0;entryX=0.5;entryY=0;entryDx=0;entryDy=0;" edge="1" parent="1" source="3fjzQiBei5Zrd4goEmmM-42" target="3fjzQiBei5Zrd4goEmmM-39">
          <mxGeometry relative="1" as="geometry" />
        </mxCell>
        <mxCell id="3fjzQiBei5Zrd4goEmmM-42" value="&lt;font face=&quot;Times New Roman&quot;&gt;ELU&lt;/font&gt;" style="rounded=1;whiteSpace=wrap;html=1;" vertex="1" parent="1">
          <mxGeometry x="-61.5" y="46.5" width="69" height="26" as="geometry" />
        </mxCell>
        <mxCell id="3fjzQiBei5Zrd4goEmmM-43" value="" style="endArrow=classic;html=1;rounded=1;fontSize=12;startSize=8;endSize=8;labelBackgroundColor=none;fontColor=default;" edge="1" parent="1">
          <mxGeometry width="50" height="50" relative="1" as="geometry">
            <mxPoint x="-27.590000000000032" y="-52.5" as="sourcePoint" />
            <mxPoint x="-27.590000000000032" y="-7.5" as="targetPoint" />
          </mxGeometry>
        </mxCell>
        <mxCell id="3fjzQiBei5Zrd4goEmmM-45" value="&lt;span style=&quot;font-size: 11px;&quot;&gt;labels&lt;/span&gt;" style="text;html=1;align=center;verticalAlign=middle;resizable=0;points=[];autosize=1;strokeColor=none;fillColor=none;fontSize=16;rounded=1;labelBackgroundColor=none;" vertex="1" parent="1">
          <mxGeometry x="-10" y="-61.5" width="47" height="31" as="geometry" />
        </mxCell>
        <mxCell id="3fjzQiBei5Zrd4goEmmM-46" value="&lt;span style=&quot;font-size: 11px;&quot;&gt;X&lt;/span&gt;" style="text;html=1;align=center;verticalAlign=middle;resizable=0;points=[];autosize=1;strokeColor=none;fillColor=none;fontSize=16;rounded=1;labelBackgroundColor=none;" vertex="1" parent="1">
          <mxGeometry x="-39.5" y="-80.5" width="25" height="31" as="geometry" />
        </mxCell>
        <mxCell id="3fjzQiBei5Zrd4goEmmM-51" value="" style="endArrow=classic;html=1;rounded=1;fontSize=12;startSize=8;endSize=8;labelBackgroundColor=none;fontColor=default;" edge="1" parent="1">
          <mxGeometry width="50" height="50" relative="1" as="geometry">
            <mxPoint x="13" y="-31.5" as="sourcePoint" />
            <mxPoint x="13" y="-7.5" as="targetPoint" />
          </mxGeometry>
        </mxCell>
        <mxCell id="3fjzQiBei5Zrd4goEmmM-52" style="edgeStyle=orthogonalEdgeStyle;rounded=1;orthogonalLoop=1;jettySize=auto;html=1;exitX=0.5;exitY=1;exitDx=0;exitDy=0;entryX=0.5;entryY=0;entryDx=0;entryDy=0;" edge="1" parent="1" source="3fjzQiBei5Zrd4goEmmM-53" target="3fjzQiBei5Zrd4goEmmM-54">
          <mxGeometry relative="1" as="geometry">
            <mxPoint x="-27" y="226.5" as="targetPoint" />
          </mxGeometry>
        </mxCell>
        <mxCell id="3fjzQiBei5Zrd4goEmmM-53" value="&lt;font face=&quot;Times New Roman&quot;&gt;ConditionalInstanceNorm2dPlus&lt;/font&gt;" style="rounded=1;whiteSpace=wrap;html=1;" vertex="1" parent="1">
          <mxGeometry x="-121.5" y="155.5" width="189" height="34" as="geometry" />
        </mxCell>
        <mxCell id="3fjzQiBei5Zrd4goEmmM-60" style="edgeStyle=orthogonalEdgeStyle;rounded=1;orthogonalLoop=1;jettySize=auto;html=1;exitX=0.5;exitY=1;exitDx=0;exitDy=0;entryX=0.5;entryY=0;entryDx=0;entryDy=0;" edge="1" parent="1" source="3fjzQiBei5Zrd4goEmmM-54" target="3fjzQiBei5Zrd4goEmmM-59">
          <mxGeometry relative="1" as="geometry" />
        </mxCell>
        <mxCell id="3fjzQiBei5Zrd4goEmmM-54" value="&lt;font face=&quot;Times New Roman&quot;&gt;ELU&lt;/font&gt;" style="rounded=1;whiteSpace=wrap;html=1;" vertex="1" parent="1">
          <mxGeometry x="-61.5" y="211.5" width="69" height="26" as="geometry" />
        </mxCell>
        <mxCell id="3fjzQiBei5Zrd4goEmmM-62" style="edgeStyle=orthogonalEdgeStyle;rounded=1;orthogonalLoop=1;jettySize=auto;html=1;exitX=0.5;exitY=1;exitDx=0;exitDy=0;" edge="1" parent="1" source="3fjzQiBei5Zrd4goEmmM-59">
          <mxGeometry relative="1" as="geometry">
            <mxPoint x="-27" y="384.5" as="targetPoint" />
          </mxGeometry>
        </mxCell>
        <mxCell id="3fjzQiBei5Zrd4goEmmM-59" value="&lt;font face=&quot;Times New Roman&quot;&gt;Conv(3.3)&lt;/font&gt;" style="rounded=1;whiteSpace=wrap;html=1;" vertex="1" parent="1">
          <mxGeometry x="-61.5" y="259.5" width="69" height="37" as="geometry" />
        </mxCell>
        <mxCell id="3fjzQiBei5Zrd4goEmmM-61" value="&lt;font style=&quot;font-size: 9px;&quot;&gt;&lt;span style=&quot;font-size: 9px;&quot;&gt;InC=ngf&lt;/span&gt;&lt;/font&gt;&lt;div style=&quot;font-size: 9px;&quot;&gt;&lt;font style=&quot;font-size: 9px;&quot;&gt;&lt;span style=&quot;font-size: 9px;&quot;&gt;OutC=ngf&lt;/span&gt;&lt;/font&gt;&lt;/div&gt;" style="text;html=1;align=center;verticalAlign=middle;resizable=0;points=[];autosize=1;strokeColor=none;fillColor=none;fontSize=9;rounded=1;labelBackgroundColor=none;" vertex="1" parent="1">
          <mxGeometry y="262.5" width="57" height="34" as="geometry" />
        </mxCell>
        <mxCell id="3fjzQiBei5Zrd4goEmmM-63" style="edgeStyle=orthogonalEdgeStyle;rounded=1;orthogonalLoop=1;jettySize=auto;html=1;exitX=0.5;exitY=1;exitDx=0;exitDy=0;entryX=0.5;entryY=0;entryDx=0;entryDy=0;" edge="1" parent="1" source="3fjzQiBei5Zrd4goEmmM-64" target="3fjzQiBei5Zrd4goEmmM-70">
          <mxGeometry relative="1" as="geometry">
            <mxPoint x="282.5" y="92.5" as="targetPoint" />
          </mxGeometry>
        </mxCell>
        <mxCell id="3fjzQiBei5Zrd4goEmmM-64" value="&lt;font face=&quot;Times New Roman&quot;&gt;ConditionalInstanceNorm2dPlus&lt;/font&gt;" style="rounded=1;whiteSpace=wrap;html=1;" vertex="1" parent="1">
          <mxGeometry x="188" y="23.5" width="189" height="34" as="geometry" />
        </mxCell>
        <mxCell id="3fjzQiBei5Zrd4goEmmM-65" value="&lt;font color=&quot;#ff0000&quot; face=&quot;Times New Roman&quot; style=&quot;font-size: 20px;&quot;&gt;Res2&lt;/font&gt;" style="text;html=1;align=center;verticalAlign=middle;resizable=0;points=[];autosize=1;strokeColor=none;fillColor=none;fontSize=16;rounded=1;labelBackgroundColor=none;" vertex="1" parent="1">
          <mxGeometry x="253.5" y="-120.5" width="58" height="36" as="geometry" />
        </mxCell>
        <mxCell id="3fjzQiBei5Zrd4goEmmM-66" style="edgeStyle=orthogonalEdgeStyle;rounded=1;orthogonalLoop=1;jettySize=auto;html=1;exitX=0.5;exitY=1;exitDx=0;exitDy=0;entryX=0.5;entryY=0;entryDx=0;entryDy=0;" edge="1" parent="1" source="3fjzQiBei5Zrd4goEmmM-67" target="3fjzQiBei5Zrd4goEmmM-76">
          <mxGeometry relative="1" as="geometry" />
        </mxCell>
        <mxCell id="3fjzQiBei5Zrd4goEmmM-67" value="&lt;font face=&quot;Times New Roman&quot;&gt;Conv(3.3)&lt;/font&gt;" style="rounded=1;whiteSpace=wrap;html=1;" vertex="1" parent="1">
          <mxGeometry x="248" y="123.5" width="69" height="37" as="geometry" />
        </mxCell>
        <mxCell id="3fjzQiBei5Zrd4goEmmM-68" value="&lt;font style=&quot;font-size: 9px;&quot;&gt;&lt;span style=&quot;font-size: 9px;&quot;&gt;InC=ngf&lt;/span&gt;&lt;/font&gt;&lt;div style=&quot;font-size: 9px;&quot;&gt;&lt;font style=&quot;font-size: 9px;&quot;&gt;&lt;span style=&quot;font-size: 9px;&quot;&gt;OutC=2ngf&lt;/span&gt;&lt;/font&gt;&lt;/div&gt;" style="text;html=1;align=center;verticalAlign=middle;resizable=0;points=[];autosize=1;strokeColor=none;fillColor=none;fontSize=9;rounded=1;labelBackgroundColor=none;" vertex="1" parent="1">
          <mxGeometry x="311.5" y="128" width="62" height="34" as="geometry" />
        </mxCell>
        <mxCell id="3fjzQiBei5Zrd4goEmmM-69" style="edgeStyle=orthogonalEdgeStyle;rounded=1;orthogonalLoop=1;jettySize=auto;html=1;exitX=0.5;exitY=1;exitDx=0;exitDy=0;entryX=0.5;entryY=0;entryDx=0;entryDy=0;" edge="1" parent="1" source="3fjzQiBei5Zrd4goEmmM-70" target="3fjzQiBei5Zrd4goEmmM-67">
          <mxGeometry relative="1" as="geometry" />
        </mxCell>
        <mxCell id="3fjzQiBei5Zrd4goEmmM-70" value="&lt;font face=&quot;Times New Roman&quot;&gt;ELU&lt;/font&gt;" style="rounded=1;whiteSpace=wrap;html=1;" vertex="1" parent="1">
          <mxGeometry x="248" y="77.5" width="69" height="26" as="geometry" />
        </mxCell>
        <mxCell id="3fjzQiBei5Zrd4goEmmM-71" value="" style="endArrow=classic;html=1;rounded=1;fontSize=12;startSize=8;endSize=8;labelBackgroundColor=none;fontColor=default;exitX=0.567;exitY=0.981;exitDx=0;exitDy=0;exitPerimeter=0;" edge="1" parent="1" source="3fjzQiBei5Zrd4goEmmM-73">
          <mxGeometry width="50" height="50" relative="1" as="geometry">
            <mxPoint x="281.90999999999997" y="-21.5" as="sourcePoint" />
            <mxPoint x="281.90999999999997" y="23.5" as="targetPoint" />
          </mxGeometry>
        </mxCell>
        <mxCell id="3fjzQiBei5Zrd4goEmmM-72" value="&lt;span style=&quot;font-size: 11px;&quot;&gt;labels&lt;/span&gt;" style="text;html=1;align=center;verticalAlign=middle;resizable=0;points=[];autosize=1;strokeColor=none;fillColor=none;fontSize=16;rounded=1;labelBackgroundColor=none;" vertex="1" parent="1">
          <mxGeometry x="299.5" y="-30.5" width="47" height="31" as="geometry" />
        </mxCell>
        <mxCell id="3fjzQiBei5Zrd4goEmmM-73" value="&lt;span style=&quot;font-size: 11px;&quot;&gt;X&lt;/span&gt;" style="text;html=1;align=center;verticalAlign=middle;resizable=0;points=[];autosize=1;strokeColor=none;fillColor=none;fontSize=16;rounded=1;labelBackgroundColor=none;" vertex="1" parent="1">
          <mxGeometry x="268" y="-84.5" width="25" height="31" as="geometry" />
        </mxCell>
        <mxCell id="3fjzQiBei5Zrd4goEmmM-74" value="" style="endArrow=classic;html=1;rounded=1;fontSize=12;startSize=8;endSize=8;labelBackgroundColor=none;fontColor=default;" edge="1" parent="1">
          <mxGeometry width="50" height="50" relative="1" as="geometry">
            <mxPoint x="322.5" y="-0.5" as="sourcePoint" />
            <mxPoint x="322.5" y="23.5" as="targetPoint" />
          </mxGeometry>
        </mxCell>
        <mxCell id="3fjzQiBei5Zrd4goEmmM-75" style="edgeStyle=orthogonalEdgeStyle;rounded=1;orthogonalLoop=1;jettySize=auto;html=1;exitX=0.5;exitY=1;exitDx=0;exitDy=0;entryX=0.5;entryY=0;entryDx=0;entryDy=0;" edge="1" parent="1" source="3fjzQiBei5Zrd4goEmmM-76" target="3fjzQiBei5Zrd4goEmmM-78">
          <mxGeometry relative="1" as="geometry">
            <mxPoint x="282.5" y="257.5" as="targetPoint" />
          </mxGeometry>
        </mxCell>
        <mxCell id="3fjzQiBei5Zrd4goEmmM-76" value="&lt;font face=&quot;Times New Roman&quot;&gt;ConditionalInstanceNorm2dPlus&lt;/font&gt;" style="rounded=1;whiteSpace=wrap;html=1;" vertex="1" parent="1">
          <mxGeometry x="188" y="186.5" width="189" height="34" as="geometry" />
        </mxCell>
        <mxCell id="3fjzQiBei5Zrd4goEmmM-77" style="edgeStyle=orthogonalEdgeStyle;rounded=1;orthogonalLoop=1;jettySize=auto;html=1;exitX=0.5;exitY=1;exitDx=0;exitDy=0;entryX=0.5;entryY=0;entryDx=0;entryDy=0;" edge="1" parent="1" source="3fjzQiBei5Zrd4goEmmM-78" target="3fjzQiBei5Zrd4goEmmM-80">
          <mxGeometry relative="1" as="geometry" />
        </mxCell>
        <mxCell id="3fjzQiBei5Zrd4goEmmM-78" value="&lt;font face=&quot;Times New Roman&quot;&gt;ELU&lt;/font&gt;" style="rounded=1;whiteSpace=wrap;html=1;" vertex="1" parent="1">
          <mxGeometry x="248" y="242.5" width="69" height="26" as="geometry" />
        </mxCell>
        <mxCell id="3fjzQiBei5Zrd4goEmmM-99" style="edgeStyle=orthogonalEdgeStyle;rounded=1;orthogonalLoop=1;jettySize=auto;html=1;exitX=0.5;exitY=1;exitDx=0;exitDy=0;entryX=0.5;entryY=0;entryDx=0;entryDy=0;" edge="1" parent="1" source="3fjzQiBei5Zrd4goEmmM-80" target="3fjzQiBei5Zrd4goEmmM-97">
          <mxGeometry relative="1" as="geometry" />
        </mxCell>
        <mxCell id="3fjzQiBei5Zrd4goEmmM-81" value="&lt;font style=&quot;font-size: 9px;&quot;&gt;&lt;span style=&quot;font-size: 9px;&quot;&gt;2ngf&lt;/span&gt;&lt;/font&gt;&lt;div style=&quot;font-size: 9px;&quot;&gt;&lt;font style=&quot;font-size: 9px;&quot;&gt;&lt;span style=&quot;font-size: 9px;&quot;&gt;2ngf&lt;/span&gt;&lt;/font&gt;&lt;/div&gt;" style="text;html=1;align=center;verticalAlign=middle;resizable=0;points=[];autosize=1;strokeColor=none;fillColor=none;fontSize=9;rounded=1;labelBackgroundColor=none;" vertex="1" parent="1">
          <mxGeometry x="311.5" y="306" width="36" height="34" as="geometry" />
        </mxCell>
        <mxCell id="3fjzQiBei5Zrd4goEmmM-88" style="edgeStyle=orthogonalEdgeStyle;rounded=1;orthogonalLoop=1;jettySize=auto;html=1;exitX=0.5;exitY=1;exitDx=0;exitDy=0;entryX=0.5;entryY=0;entryDx=0;entryDy=0;" edge="1" parent="1" source="3fjzQiBei5Zrd4goEmmM-86" target="3fjzQiBei5Zrd4goEmmM-87">
          <mxGeometry relative="1" as="geometry" />
        </mxCell>
        <mxCell id="3fjzQiBei5Zrd4goEmmM-86" value="&lt;font face=&quot;Times New Roman&quot;&gt;Conv(3.3)&lt;/font&gt;" style="rounded=1;whiteSpace=wrap;html=1;" vertex="1" parent="1">
          <mxGeometry x="247.5" y="304.5" width="69" height="37" as="geometry" />
        </mxCell>
        <mxCell id="3fjzQiBei5Zrd4goEmmM-87" value="&lt;font face=&quot;Times New Roman&quot;&gt;Avgpool(2,2)&lt;/font&gt;" style="rounded=1;whiteSpace=wrap;html=1;" vertex="1" parent="1">
          <mxGeometry x="248" y="356.5" width="69" height="37" as="geometry" />
        </mxCell>
        <mxCell id="3fjzQiBei5Zrd4goEmmM-91" value="&lt;font color=&quot;#ff0000&quot;&gt;Down 2&lt;/font&gt;" style="text;html=1;align=center;verticalAlign=middle;resizable=0;points=[];autosize=1;strokeColor=none;fillColor=none;fontSize=9;rounded=1;labelBackgroundColor=none;" vertex="1" parent="1">
          <mxGeometry x="258" y="354.5" width="49" height="23" as="geometry" />
        </mxCell>
        <mxCell id="3fjzQiBei5Zrd4goEmmM-95" value="&lt;font style=&quot;font-size: 13px;&quot;&gt;&lt;b&gt;Double&lt;/b&gt;&lt;/font&gt;" style="text;html=1;align=center;verticalAlign=middle;resizable=0;points=[];autosize=1;strokeColor=none;fillColor=none;fontSize=16;rounded=1;labelBackgroundColor=none;" vertex="1" parent="1">
          <mxGeometry x="81" y="124.5" width="62" height="31" as="geometry" />
        </mxCell>
        <mxCell id="3fjzQiBei5Zrd4goEmmM-131" style="edgeStyle=elbowEdgeStyle;rounded=1;orthogonalLoop=1;jettySize=auto;html=1;exitX=0.5;exitY=1;exitDx=0;exitDy=0;entryX=0.5;entryY=0;entryDx=0;entryDy=0;" edge="1" parent="1" source="3fjzQiBei5Zrd4goEmmM-97" target="3fjzQiBei5Zrd4goEmmM-114">
          <mxGeometry relative="1" as="geometry" />
        </mxCell>
        <mxCell id="3fjzQiBei5Zrd4goEmmM-97" value="" style="shape=orEllipse;perimeter=ellipsePerimeter;whiteSpace=wrap;html=1;backgroundOutline=1;rounded=1;labelBackgroundColor=none;" vertex="1" parent="1">
          <mxGeometry x="273.5" y="421.5" width="17" height="16" as="geometry" />
        </mxCell>
        <mxCell id="3fjzQiBei5Zrd4goEmmM-103" value="" style="endArrow=classic;html=1;rounded=1;fontSize=12;startSize=8;endSize=8;labelBackgroundColor=none;fontColor=default;entryX=0.5;entryY=0;entryDx=0;entryDy=0;" edge="1" parent="1" target="3fjzQiBei5Zrd4goEmmM-105">
          <mxGeometry width="50" height="50" relative="1" as="geometry">
            <mxPoint x="282" y="-31.5" as="sourcePoint" />
            <mxPoint x="407" y="91.5" as="targetPoint" />
            <Array as="points">
              <mxPoint x="460" y="-31.5" />
            </Array>
          </mxGeometry>
        </mxCell>
        <mxCell id="3fjzQiBei5Zrd4goEmmM-111" style="edgeStyle=elbowEdgeStyle;rounded=1;orthogonalLoop=1;jettySize=auto;html=1;exitX=0.5;exitY=1;exitDx=0;exitDy=0;entryX=1;entryY=0.5;entryDx=0;entryDy=0;" edge="1" parent="1" source="3fjzQiBei5Zrd4goEmmM-105" target="3fjzQiBei5Zrd4goEmmM-97">
          <mxGeometry relative="1" as="geometry">
            <Array as="points">
              <mxPoint x="460" y="352.5" />
            </Array>
          </mxGeometry>
        </mxCell>
        <mxCell id="3fjzQiBei5Zrd4goEmmM-105" value="" style="rounded=1;whiteSpace=wrap;html=1;" vertex="1" parent="1">
          <mxGeometry x="396.5" y="150" width="127" height="107" as="geometry" />
        </mxCell>
        <mxCell id="3fjzQiBei5Zrd4goEmmM-106" value="&lt;font style=&quot;font-size: 9px;&quot;&gt;&lt;span style=&quot;font-size: 9px;&quot;&gt;ngf&lt;/span&gt;&lt;/font&gt;&lt;div style=&quot;font-size: 9px;&quot;&gt;&lt;font style=&quot;font-size: 9px;&quot;&gt;&lt;span style=&quot;font-size: 9px;&quot;&gt;2ngf&lt;/span&gt;&lt;/font&gt;&lt;/div&gt;" style="text;html=1;align=center;verticalAlign=middle;resizable=0;points=[];autosize=1;strokeColor=none;fillColor=none;fontSize=9;rounded=1;labelBackgroundColor=none;" vertex="1" parent="1">
          <mxGeometry x="492" y="162" width="36" height="34" as="geometry" />
        </mxCell>
        <mxCell id="3fjzQiBei5Zrd4goEmmM-107" style="edgeStyle=orthogonalEdgeStyle;rounded=1;orthogonalLoop=1;jettySize=auto;html=1;exitX=0.5;exitY=1;exitDx=0;exitDy=0;entryX=0.5;entryY=0;entryDx=0;entryDy=0;" edge="1" parent="1" source="3fjzQiBei5Zrd4goEmmM-108" target="3fjzQiBei5Zrd4goEmmM-109">
          <mxGeometry relative="1" as="geometry" />
        </mxCell>
        <mxCell id="3fjzQiBei5Zrd4goEmmM-108" value="&lt;font face=&quot;Times New Roman&quot;&gt;Conv(3.3)&lt;/font&gt;" style="rounded=1;whiteSpace=wrap;html=1;" vertex="1" parent="1">
          <mxGeometry x="428" y="160.5" width="69" height="37" as="geometry" />
        </mxCell>
        <mxCell id="3fjzQiBei5Zrd4goEmmM-109" value="&lt;font face=&quot;Times New Roman&quot;&gt;Avgpool(2,2)&lt;/font&gt;" style="rounded=1;whiteSpace=wrap;html=1;" vertex="1" parent="1">
          <mxGeometry x="428.5" y="212.5" width="69" height="37" as="geometry" />
        </mxCell>
        <mxCell id="3fjzQiBei5Zrd4goEmmM-110" value="&lt;font color=&quot;#ff0000&quot;&gt;Down 2&lt;/font&gt;" style="text;html=1;align=center;verticalAlign=middle;resizable=0;points=[];autosize=1;strokeColor=none;fillColor=none;fontSize=9;rounded=1;labelBackgroundColor=none;" vertex="1" parent="1">
          <mxGeometry x="438.5" y="210.5" width="49" height="23" as="geometry" />
        </mxCell>
        <mxCell id="3fjzQiBei5Zrd4goEmmM-113" style="edgeStyle=orthogonalEdgeStyle;rounded=1;orthogonalLoop=1;jettySize=auto;html=1;exitX=0.5;exitY=1;exitDx=0;exitDy=0;entryX=0.5;entryY=0;entryDx=0;entryDy=0;" edge="1" parent="1" source="3fjzQiBei5Zrd4goEmmM-114" target="3fjzQiBei5Zrd4goEmmM-119">
          <mxGeometry relative="1" as="geometry">
            <mxPoint x="282.5" y="534.5" as="targetPoint" />
          </mxGeometry>
        </mxCell>
        <mxCell id="3fjzQiBei5Zrd4goEmmM-114" value="&lt;font face=&quot;Times New Roman&quot;&gt;ConditionalInstanceNorm2dPlus&lt;/font&gt;" style="rounded=1;whiteSpace=wrap;html=1;" vertex="1" parent="1">
          <mxGeometry x="188" y="465.5" width="189" height="34" as="geometry" />
        </mxCell>
        <mxCell id="3fjzQiBei5Zrd4goEmmM-115" style="edgeStyle=orthogonalEdgeStyle;rounded=1;orthogonalLoop=1;jettySize=auto;html=1;exitX=0.5;exitY=1;exitDx=0;exitDy=0;entryX=0.5;entryY=0;entryDx=0;entryDy=0;" edge="1" parent="1" source="3fjzQiBei5Zrd4goEmmM-116" target="3fjzQiBei5Zrd4goEmmM-124">
          <mxGeometry relative="1" as="geometry" />
        </mxCell>
        <mxCell id="3fjzQiBei5Zrd4goEmmM-116" value="&lt;font face=&quot;Times New Roman&quot;&gt;Conv(3.3)&lt;/font&gt;" style="rounded=1;whiteSpace=wrap;html=1;" vertex="1" parent="1">
          <mxGeometry x="248" y="565.5" width="69" height="37" as="geometry" />
        </mxCell>
        <mxCell id="3fjzQiBei5Zrd4goEmmM-117" value="&lt;font style=&quot;font-size: 9px;&quot;&gt;&lt;span style=&quot;font-size: 9px;&quot;&gt;InC=2ngf&lt;/span&gt;&lt;/font&gt;&lt;div style=&quot;font-size: 9px;&quot;&gt;&lt;font style=&quot;font-size: 9px;&quot;&gt;&lt;span style=&quot;font-size: 9px;&quot;&gt;OutC=2ngf&lt;/span&gt;&lt;/font&gt;&lt;/div&gt;" style="text;html=1;align=center;verticalAlign=middle;resizable=0;points=[];autosize=1;strokeColor=none;fillColor=none;fontSize=9;rounded=1;labelBackgroundColor=none;" vertex="1" parent="1">
          <mxGeometry x="307.5" y="568" width="62" height="34" as="geometry" />
        </mxCell>
        <mxCell id="3fjzQiBei5Zrd4goEmmM-118" style="edgeStyle=orthogonalEdgeStyle;rounded=1;orthogonalLoop=1;jettySize=auto;html=1;exitX=0.5;exitY=1;exitDx=0;exitDy=0;entryX=0.5;entryY=0;entryDx=0;entryDy=0;" edge="1" parent="1" source="3fjzQiBei5Zrd4goEmmM-119" target="3fjzQiBei5Zrd4goEmmM-116">
          <mxGeometry relative="1" as="geometry" />
        </mxCell>
        <mxCell id="3fjzQiBei5Zrd4goEmmM-119" value="&lt;font face=&quot;Times New Roman&quot;&gt;ELU&lt;/font&gt;" style="rounded=1;whiteSpace=wrap;html=1;" vertex="1" parent="1">
          <mxGeometry x="248" y="519.5" width="69" height="26" as="geometry" />
        </mxCell>
        <mxCell id="3fjzQiBei5Zrd4goEmmM-123" style="edgeStyle=orthogonalEdgeStyle;rounded=1;orthogonalLoop=1;jettySize=auto;html=1;exitX=0.5;exitY=1;exitDx=0;exitDy=0;entryX=0.5;entryY=0;entryDx=0;entryDy=0;" edge="1" parent="1" source="3fjzQiBei5Zrd4goEmmM-124" target="3fjzQiBei5Zrd4goEmmM-126">
          <mxGeometry relative="1" as="geometry">
            <mxPoint x="282.5" y="699.5" as="targetPoint" />
          </mxGeometry>
        </mxCell>
        <mxCell id="3fjzQiBei5Zrd4goEmmM-124" value="&lt;font face=&quot;Times New Roman&quot;&gt;ConditionalInstanceNorm2dPlus&lt;/font&gt;" style="rounded=1;whiteSpace=wrap;html=1;" vertex="1" parent="1">
          <mxGeometry x="188" y="628.5" width="189" height="34" as="geometry" />
        </mxCell>
        <mxCell id="3fjzQiBei5Zrd4goEmmM-125" style="edgeStyle=orthogonalEdgeStyle;rounded=1;orthogonalLoop=1;jettySize=auto;html=1;exitX=0.5;exitY=1;exitDx=0;exitDy=0;entryX=0.5;entryY=0;entryDx=0;entryDy=0;" edge="1" parent="1" source="3fjzQiBei5Zrd4goEmmM-126" target="3fjzQiBei5Zrd4goEmmM-128">
          <mxGeometry relative="1" as="geometry" />
        </mxCell>
        <mxCell id="3fjzQiBei5Zrd4goEmmM-126" value="&lt;font face=&quot;Times New Roman&quot;&gt;ELU&lt;/font&gt;" style="rounded=1;whiteSpace=wrap;html=1;" vertex="1" parent="1">
          <mxGeometry x="248" y="684.5" width="69" height="26" as="geometry" />
        </mxCell>
        <mxCell id="3fjzQiBei5Zrd4goEmmM-127" style="edgeStyle=orthogonalEdgeStyle;rounded=1;orthogonalLoop=1;jettySize=auto;html=1;exitX=0.5;exitY=1;exitDx=0;exitDy=0;" edge="1" parent="1" source="3fjzQiBei5Zrd4goEmmM-128">
          <mxGeometry relative="1" as="geometry">
            <mxPoint x="282.4411764705883" y="800.6176470588234" as="targetPoint" />
          </mxGeometry>
        </mxCell>
        <mxCell id="3fjzQiBei5Zrd4goEmmM-128" value="&lt;font face=&quot;Times New Roman&quot;&gt;Conv(3.3)&lt;/font&gt;" style="rounded=1;whiteSpace=wrap;html=1;" vertex="1" parent="1">
          <mxGeometry x="248" y="732.5" width="69" height="37" as="geometry" />
        </mxCell>
        <mxCell id="3fjzQiBei5Zrd4goEmmM-129" value="&lt;font style=&quot;font-size: 9px;&quot;&gt;&lt;span style=&quot;font-size: 9px;&quot;&gt;InC=2ngf&lt;/span&gt;&lt;/font&gt;&lt;div style=&quot;font-size: 9px;&quot;&gt;&lt;font style=&quot;font-size: 9px;&quot;&gt;&lt;span style=&quot;font-size: 9px;&quot;&gt;OutC=2ngf&lt;/span&gt;&lt;/font&gt;&lt;/div&gt;" style="text;html=1;align=center;verticalAlign=middle;resizable=0;points=[];autosize=1;strokeColor=none;fillColor=none;fontSize=9;rounded=1;labelBackgroundColor=none;" vertex="1" parent="1">
          <mxGeometry x="307.5" y="735.5" width="62" height="34" as="geometry" />
        </mxCell>
        <mxCell id="3fjzQiBei5Zrd4goEmmM-132" value="&lt;font color=&quot;#ff0000&quot; face=&quot;Times New Roman&quot; style=&quot;font-size: 20px;&quot;&gt;Res3&lt;/font&gt;" style="text;html=1;align=center;verticalAlign=middle;resizable=0;points=[];autosize=1;strokeColor=none;fillColor=none;fontSize=16;rounded=1;labelBackgroundColor=none;" vertex="1" parent="1">
          <mxGeometry x="736" y="-120.5" width="58" height="36" as="geometry" />
        </mxCell>
        <mxCell id="3fjzQiBei5Zrd4goEmmM-133" value="&lt;font color=&quot;#ff0000&quot; face=&quot;Times New Roman&quot; style=&quot;font-size: 20px;&quot;&gt;Res4&lt;/font&gt;" style="text;html=1;align=center;verticalAlign=middle;resizable=0;points=[];autosize=1;strokeColor=none;fillColor=none;fontSize=16;rounded=1;labelBackgroundColor=none;" vertex="1" parent="1">
          <mxGeometry x="1213.26" y="-140.5" width="58" height="36" as="geometry" />
        </mxCell>
        <mxCell id="3fjzQiBei5Zrd4goEmmM-135" style="edgeStyle=orthogonalEdgeStyle;rounded=1;orthogonalLoop=1;jettySize=auto;html=1;exitX=0.5;exitY=1;exitDx=0;exitDy=0;entryX=0.5;entryY=0;entryDx=0;entryDy=0;" edge="1" parent="1" source="3fjzQiBei5Zrd4goEmmM-136" target="3fjzQiBei5Zrd4goEmmM-141">
          <mxGeometry relative="1" as="geometry">
            <mxPoint x="761.5" y="116.00999999999999" as="targetPoint" />
          </mxGeometry>
        </mxCell>
        <mxCell id="3fjzQiBei5Zrd4goEmmM-136" value="&lt;font face=&quot;Times New Roman&quot;&gt;ConditionalInstanceNorm2dPlus&lt;/font&gt;" style="rounded=1;whiteSpace=wrap;html=1;" vertex="1" parent="1">
          <mxGeometry x="667" y="47.00999999999999" width="189" height="34" as="geometry" />
        </mxCell>
        <mxCell id="3fjzQiBei5Zrd4goEmmM-137" style="edgeStyle=orthogonalEdgeStyle;rounded=1;orthogonalLoop=1;jettySize=auto;html=1;exitX=0.5;exitY=1;exitDx=0;exitDy=0;entryX=0.5;entryY=0;entryDx=0;entryDy=0;" edge="1" parent="1" source="3fjzQiBei5Zrd4goEmmM-138" target="3fjzQiBei5Zrd4goEmmM-147">
          <mxGeometry relative="1" as="geometry" />
        </mxCell>
        <mxCell id="3fjzQiBei5Zrd4goEmmM-138" value="&lt;font face=&quot;Times New Roman&quot;&gt;Dilated_Conv(3.3,d=2)&lt;/font&gt;" style="rounded=1;whiteSpace=wrap;html=1;" vertex="1" parent="1">
          <mxGeometry x="703.13" y="147.51" width="116.75" height="37" as="geometry" />
        </mxCell>
        <mxCell id="3fjzQiBei5Zrd4goEmmM-139" value="&lt;font style=&quot;font-size: 9px;&quot;&gt;&lt;span style=&quot;font-size: 9px;&quot;&gt;InC=2ngf&lt;/span&gt;&lt;/font&gt;&lt;div style=&quot;font-size: 9px;&quot;&gt;&lt;font style=&quot;font-size: 9px;&quot;&gt;&lt;span style=&quot;font-size: 9px;&quot;&gt;OutC=2ngf&lt;/span&gt;&lt;/font&gt;&lt;/div&gt;" style="text;html=1;align=center;verticalAlign=middle;resizable=0;points=[];autosize=1;strokeColor=none;fillColor=none;fontSize=9;rounded=1;labelBackgroundColor=none;" vertex="1" parent="1">
          <mxGeometry x="812.5" y="149.01" width="62" height="34" as="geometry" />
        </mxCell>
        <mxCell id="3fjzQiBei5Zrd4goEmmM-140" style="edgeStyle=orthogonalEdgeStyle;rounded=1;orthogonalLoop=1;jettySize=auto;html=1;exitX=0.5;exitY=1;exitDx=0;exitDy=0;entryX=0.5;entryY=0;entryDx=0;entryDy=0;" edge="1" parent="1" source="3fjzQiBei5Zrd4goEmmM-141" target="3fjzQiBei5Zrd4goEmmM-138">
          <mxGeometry relative="1" as="geometry" />
        </mxCell>
        <mxCell id="3fjzQiBei5Zrd4goEmmM-141" value="&lt;font face=&quot;Times New Roman&quot;&gt;ELU&lt;/font&gt;" style="rounded=1;whiteSpace=wrap;html=1;" vertex="1" parent="1">
          <mxGeometry x="727" y="101.00999999999999" width="69" height="26" as="geometry" />
        </mxCell>
        <mxCell id="3fjzQiBei5Zrd4goEmmM-142" value="" style="endArrow=classic;html=1;rounded=1;fontSize=12;startSize=8;endSize=8;labelBackgroundColor=none;fontColor=default;" edge="1" parent="1" source="3fjzQiBei5Zrd4goEmmM-144">
          <mxGeometry width="50" height="50" relative="1" as="geometry">
            <mxPoint x="761.3684172661874" y="-6.990000000000009" as="sourcePoint" />
            <mxPoint x="760.91" y="47.00999999999999" as="targetPoint" />
          </mxGeometry>
        </mxCell>
        <mxCell id="3fjzQiBei5Zrd4goEmmM-143" value="&lt;span style=&quot;font-size: 11px;&quot;&gt;labels&lt;/span&gt;" style="text;html=1;align=center;verticalAlign=middle;resizable=0;points=[];autosize=1;strokeColor=none;fillColor=none;fontSize=16;rounded=1;labelBackgroundColor=none;" vertex="1" parent="1">
          <mxGeometry x="778.5" y="-6.990000000000009" width="47" height="31" as="geometry" />
        </mxCell>
        <mxCell id="3fjzQiBei5Zrd4goEmmM-144" value="&lt;span style=&quot;font-size: 11px;&quot;&gt;X&lt;/span&gt;" style="text;html=1;align=center;verticalAlign=middle;resizable=0;points=[];autosize=1;strokeColor=none;fillColor=none;fontSize=16;rounded=1;labelBackgroundColor=none;" vertex="1" parent="1">
          <mxGeometry x="749" y="-72.74" width="25" height="31" as="geometry" />
        </mxCell>
        <mxCell id="3fjzQiBei5Zrd4goEmmM-145" value="" style="endArrow=classic;html=1;rounded=1;fontSize=12;startSize=8;endSize=8;labelBackgroundColor=none;fontColor=default;" edge="1" parent="1">
          <mxGeometry width="50" height="50" relative="1" as="geometry">
            <mxPoint x="801.5" y="23.00999999999999" as="sourcePoint" />
            <mxPoint x="801.5" y="47.00999999999999" as="targetPoint" />
          </mxGeometry>
        </mxCell>
        <mxCell id="3fjzQiBei5Zrd4goEmmM-146" style="edgeStyle=orthogonalEdgeStyle;rounded=1;orthogonalLoop=1;jettySize=auto;html=1;exitX=0.5;exitY=1;exitDx=0;exitDy=0;entryX=0.5;entryY=0;entryDx=0;entryDy=0;" edge="1" parent="1" source="3fjzQiBei5Zrd4goEmmM-147" target="3fjzQiBei5Zrd4goEmmM-149">
          <mxGeometry relative="1" as="geometry">
            <mxPoint x="761.5" y="281.01" as="targetPoint" />
          </mxGeometry>
        </mxCell>
        <mxCell id="3fjzQiBei5Zrd4goEmmM-147" value="&lt;font face=&quot;Times New Roman&quot;&gt;ConditionalInstanceNorm2dPlus&lt;/font&gt;" style="rounded=1;whiteSpace=wrap;html=1;" vertex="1" parent="1">
          <mxGeometry x="667" y="210.01" width="189" height="34" as="geometry" />
        </mxCell>
        <mxCell id="3fjzQiBei5Zrd4goEmmM-148" style="edgeStyle=orthogonalEdgeStyle;rounded=1;orthogonalLoop=1;jettySize=auto;html=1;exitX=0.5;exitY=1;exitDx=0;exitDy=0;entryX=0.5;entryY=0;entryDx=0;entryDy=0;" edge="1" parent="1" source="3fjzQiBei5Zrd4goEmmM-149" target="3fjzQiBei5Zrd4goEmmM-151">
          <mxGeometry relative="1" as="geometry" />
        </mxCell>
        <mxCell id="3fjzQiBei5Zrd4goEmmM-149" value="&lt;font face=&quot;Times New Roman&quot;&gt;ELU&lt;/font&gt;" style="rounded=1;whiteSpace=wrap;html=1;" vertex="1" parent="1">
          <mxGeometry x="727" y="266.01" width="69" height="26" as="geometry" />
        </mxCell>
        <mxCell id="3fjzQiBei5Zrd4goEmmM-156" style="edgeStyle=elbowEdgeStyle;rounded=1;orthogonalLoop=1;jettySize=auto;html=1;exitX=0.5;exitY=1;exitDx=0;exitDy=0;entryX=0.5;entryY=0;entryDx=0;entryDy=0;" edge="1" parent="1" source="3fjzQiBei5Zrd4goEmmM-151" target="3fjzQiBei5Zrd4goEmmM-155">
          <mxGeometry relative="1" as="geometry" />
        </mxCell>
        <mxCell id="3fjzQiBei5Zrd4goEmmM-151" value="&lt;span style=&quot;font-family: &amp;quot;Times New Roman&amp;quot;;&quot;&gt;Dilated_Conv(3.3,d=2)&lt;/span&gt;" style="rounded=1;whiteSpace=wrap;html=1;" vertex="1" parent="1">
          <mxGeometry x="704.26" y="315.01" width="114.5" height="37" as="geometry" />
        </mxCell>
        <mxCell id="3fjzQiBei5Zrd4goEmmM-154" value="&lt;font style=&quot;font-size: 9px;&quot;&gt;&lt;span style=&quot;font-size: 9px;&quot;&gt;InC=2ngf&lt;/span&gt;&lt;/font&gt;&lt;div style=&quot;font-size: 9px;&quot;&gt;&lt;font style=&quot;font-size: 9px;&quot;&gt;&lt;span style=&quot;font-size: 9px;&quot;&gt;OutC=2ngf&lt;/span&gt;&lt;/font&gt;&lt;/div&gt;" style="text;html=1;align=center;verticalAlign=middle;resizable=0;points=[];autosize=1;strokeColor=none;fillColor=none;fontSize=9;rounded=1;labelBackgroundColor=none;" vertex="1" parent="1">
          <mxGeometry x="812.5" y="315.51" width="62" height="34" as="geometry" />
        </mxCell>
        <mxCell id="3fjzQiBei5Zrd4goEmmM-161" style="edgeStyle=elbowEdgeStyle;rounded=1;orthogonalLoop=1;jettySize=auto;html=1;exitX=0.5;exitY=1;exitDx=0;exitDy=0;entryX=0.5;entryY=0;entryDx=0;entryDy=0;" edge="1" parent="1" source="3fjzQiBei5Zrd4goEmmM-155" target="3fjzQiBei5Zrd4goEmmM-165">
          <mxGeometry relative="1" as="geometry">
            <mxPoint x="761.9411764705883" y="465.4952941176473" as="targetPoint" />
          </mxGeometry>
        </mxCell>
        <mxCell id="3fjzQiBei5Zrd4goEmmM-155" value="" style="shape=orEllipse;perimeter=ellipsePerimeter;whiteSpace=wrap;html=1;backgroundOutline=1;rounded=1;labelBackgroundColor=none;" vertex="1" parent="1">
          <mxGeometry x="753.01" y="373.51" width="17" height="16" as="geometry" />
        </mxCell>
        <mxCell id="3fjzQiBei5Zrd4goEmmM-158" value="" style="endArrow=classic;html=1;rounded=1;fontSize=12;startSize=8;endSize=8;labelBackgroundColor=none;fontColor=default;entryX=0.5;entryY=0;entryDx=0;entryDy=0;" edge="1" parent="1" target="3fjzQiBei5Zrd4goEmmM-159">
          <mxGeometry width="50" height="50" relative="1" as="geometry">
            <mxPoint x="761" y="-8.240000000000009" as="sourcePoint" />
            <mxPoint x="939" y="173.76" as="targetPoint" />
            <Array as="points">
              <mxPoint x="939" y="-8.240000000000009" />
            </Array>
          </mxGeometry>
        </mxCell>
        <mxCell id="3fjzQiBei5Zrd4goEmmM-160" style="edgeStyle=elbowEdgeStyle;rounded=1;orthogonalLoop=1;jettySize=auto;html=1;exitX=0.5;exitY=1;exitDx=0;exitDy=0;entryX=1;entryY=0.5;entryDx=0;entryDy=0;" edge="1" parent="1" source="3fjzQiBei5Zrd4goEmmM-159" target="3fjzQiBei5Zrd4goEmmM-155">
          <mxGeometry relative="1" as="geometry">
            <Array as="points">
              <mxPoint x="938" y="304.26" />
            </Array>
          </mxGeometry>
        </mxCell>
        <mxCell id="3fjzQiBei5Zrd4goEmmM-159" value="&lt;span style=&quot;font-family: &amp;quot;Times New Roman&amp;quot;;&quot;&gt;Dilated_Conv(1.1,d=2)&lt;/span&gt;" style="rounded=1;whiteSpace=wrap;html=1;" vertex="1" parent="1">
          <mxGeometry x="882" y="184.26" width="114.5" height="37" as="geometry" />
        </mxCell>
        <mxCell id="3fjzQiBei5Zrd4goEmmM-164" style="edgeStyle=orthogonalEdgeStyle;rounded=1;orthogonalLoop=1;jettySize=auto;html=1;exitX=0.5;exitY=1;exitDx=0;exitDy=0;entryX=0.5;entryY=0;entryDx=0;entryDy=0;" edge="1" parent="1" source="3fjzQiBei5Zrd4goEmmM-165" target="3fjzQiBei5Zrd4goEmmM-170">
          <mxGeometry relative="1" as="geometry">
            <mxPoint x="761.5" y="490.5" as="targetPoint" />
          </mxGeometry>
        </mxCell>
        <mxCell id="3fjzQiBei5Zrd4goEmmM-165" value="&lt;font face=&quot;Times New Roman&quot;&gt;ConditionalInstanceNorm2dPlus&lt;/font&gt;" style="rounded=1;whiteSpace=wrap;html=1;" vertex="1" parent="1">
          <mxGeometry x="667" y="421.5" width="189" height="34" as="geometry" />
        </mxCell>
        <mxCell id="3fjzQiBei5Zrd4goEmmM-166" style="edgeStyle=orthogonalEdgeStyle;rounded=1;orthogonalLoop=1;jettySize=auto;html=1;exitX=0.5;exitY=1;exitDx=0;exitDy=0;entryX=0.5;entryY=0;entryDx=0;entryDy=0;" edge="1" parent="1" source="3fjzQiBei5Zrd4goEmmM-167" target="3fjzQiBei5Zrd4goEmmM-172">
          <mxGeometry relative="1" as="geometry" />
        </mxCell>
        <mxCell id="3fjzQiBei5Zrd4goEmmM-167" value="&lt;font face=&quot;Times New Roman&quot;&gt;Dilated_Conv(3.3,d=2)&lt;/font&gt;" style="rounded=1;whiteSpace=wrap;html=1;" vertex="1" parent="1">
          <mxGeometry x="703.13" y="522" width="116.75" height="37" as="geometry" />
        </mxCell>
        <mxCell id="3fjzQiBei5Zrd4goEmmM-168" value="&lt;font style=&quot;font-size: 9px;&quot;&gt;&lt;span style=&quot;font-size: 9px;&quot;&gt;InC=2ngf&lt;/span&gt;&lt;/font&gt;&lt;div style=&quot;font-size: 9px;&quot;&gt;&lt;font style=&quot;font-size: 9px;&quot;&gt;&lt;span style=&quot;font-size: 9px;&quot;&gt;OutC=2ngf&lt;/span&gt;&lt;/font&gt;&lt;/div&gt;" style="text;html=1;align=center;verticalAlign=middle;resizable=0;points=[];autosize=1;strokeColor=none;fillColor=none;fontSize=9;rounded=1;labelBackgroundColor=none;" vertex="1" parent="1">
          <mxGeometry x="812.5" y="523.5" width="62" height="34" as="geometry" />
        </mxCell>
        <mxCell id="3fjzQiBei5Zrd4goEmmM-169" style="edgeStyle=orthogonalEdgeStyle;rounded=1;orthogonalLoop=1;jettySize=auto;html=1;exitX=0.5;exitY=1;exitDx=0;exitDy=0;entryX=0.5;entryY=0;entryDx=0;entryDy=0;" edge="1" parent="1" source="3fjzQiBei5Zrd4goEmmM-170" target="3fjzQiBei5Zrd4goEmmM-167">
          <mxGeometry relative="1" as="geometry" />
        </mxCell>
        <mxCell id="3fjzQiBei5Zrd4goEmmM-170" value="&lt;font face=&quot;Times New Roman&quot;&gt;ELU&lt;/font&gt;" style="rounded=1;whiteSpace=wrap;html=1;" vertex="1" parent="1">
          <mxGeometry x="727" y="475.5" width="69" height="26" as="geometry" />
        </mxCell>
        <mxCell id="3fjzQiBei5Zrd4goEmmM-171" style="edgeStyle=orthogonalEdgeStyle;rounded=1;orthogonalLoop=1;jettySize=auto;html=1;exitX=0.5;exitY=1;exitDx=0;exitDy=0;entryX=0.5;entryY=0;entryDx=0;entryDy=0;" edge="1" parent="1" source="3fjzQiBei5Zrd4goEmmM-172" target="3fjzQiBei5Zrd4goEmmM-174">
          <mxGeometry relative="1" as="geometry">
            <mxPoint x="761.5" y="655.5" as="targetPoint" />
          </mxGeometry>
        </mxCell>
        <mxCell id="3fjzQiBei5Zrd4goEmmM-172" value="&lt;font face=&quot;Times New Roman&quot;&gt;ConditionalInstanceNorm2dPlus&lt;/font&gt;" style="rounded=1;whiteSpace=wrap;html=1;" vertex="1" parent="1">
          <mxGeometry x="667" y="584.5" width="189" height="34" as="geometry" />
        </mxCell>
        <mxCell id="3fjzQiBei5Zrd4goEmmM-173" style="edgeStyle=orthogonalEdgeStyle;rounded=1;orthogonalLoop=1;jettySize=auto;html=1;exitX=0.5;exitY=1;exitDx=0;exitDy=0;entryX=0.5;entryY=0;entryDx=0;entryDy=0;" edge="1" parent="1" source="3fjzQiBei5Zrd4goEmmM-174" target="3fjzQiBei5Zrd4goEmmM-176">
          <mxGeometry relative="1" as="geometry" />
        </mxCell>
        <mxCell id="3fjzQiBei5Zrd4goEmmM-174" value="&lt;font face=&quot;Times New Roman&quot;&gt;ELU&lt;/font&gt;" style="rounded=1;whiteSpace=wrap;html=1;" vertex="1" parent="1">
          <mxGeometry x="727" y="640.5" width="69" height="26" as="geometry" />
        </mxCell>
        <mxCell id="3fjzQiBei5Zrd4goEmmM-175" style="edgeStyle=elbowEdgeStyle;rounded=1;orthogonalLoop=1;jettySize=auto;html=1;exitX=0.5;exitY=1;exitDx=0;exitDy=0;entryX=0.5;entryY=0;entryDx=0;entryDy=0;" edge="1" parent="1" source="3fjzQiBei5Zrd4goEmmM-176" target="3fjzQiBei5Zrd4goEmmM-179">
          <mxGeometry relative="1" as="geometry" />
        </mxCell>
        <mxCell id="3fjzQiBei5Zrd4goEmmM-176" value="&lt;span style=&quot;font-family: &amp;quot;Times New Roman&amp;quot;;&quot;&gt;Dilated_Conv(3.3,d=2)&lt;/span&gt;" style="rounded=1;whiteSpace=wrap;html=1;" vertex="1" parent="1">
          <mxGeometry x="704.26" y="689.5" width="114.5" height="37" as="geometry" />
        </mxCell>
        <mxCell id="3fjzQiBei5Zrd4goEmmM-177" value="&lt;font style=&quot;font-size: 9px;&quot;&gt;&lt;span style=&quot;font-size: 9px;&quot;&gt;InC=2ngf&lt;/span&gt;&lt;/font&gt;&lt;div style=&quot;font-size: 9px;&quot;&gt;&lt;font style=&quot;font-size: 9px;&quot;&gt;&lt;span style=&quot;font-size: 9px;&quot;&gt;OutC=2ngf&lt;/span&gt;&lt;/font&gt;&lt;/div&gt;" style="text;html=1;align=center;verticalAlign=middle;resizable=0;points=[];autosize=1;strokeColor=none;fillColor=none;fontSize=9;rounded=1;labelBackgroundColor=none;" vertex="1" parent="1">
          <mxGeometry x="812.5" y="690" width="62" height="34" as="geometry" />
        </mxCell>
        <mxCell id="3fjzQiBei5Zrd4goEmmM-178" style="edgeStyle=elbowEdgeStyle;rounded=1;orthogonalLoop=1;jettySize=auto;html=1;exitX=0.5;exitY=1;exitDx=0;exitDy=0;" edge="1" parent="1" source="3fjzQiBei5Zrd4goEmmM-179">
          <mxGeometry relative="1" as="geometry">
            <mxPoint x="762" y="790.5" as="targetPoint" />
          </mxGeometry>
        </mxCell>
        <mxCell id="3fjzQiBei5Zrd4goEmmM-179" value="" style="shape=orEllipse;perimeter=ellipsePerimeter;whiteSpace=wrap;html=1;backgroundOutline=1;rounded=1;labelBackgroundColor=none;" vertex="1" parent="1">
          <mxGeometry x="753.01" y="748" width="17" height="16" as="geometry" />
        </mxCell>
        <mxCell id="3fjzQiBei5Zrd4goEmmM-182" style="edgeStyle=orthogonalEdgeStyle;rounded=1;orthogonalLoop=1;jettySize=auto;html=1;exitX=0.5;exitY=1;exitDx=0;exitDy=0;entryX=0.5;entryY=0;entryDx=0;entryDy=0;" edge="1" parent="1" source="3fjzQiBei5Zrd4goEmmM-183" target="3fjzQiBei5Zrd4goEmmM-188">
          <mxGeometry relative="1" as="geometry">
            <mxPoint x="1236.5" y="115.76999999999998" as="targetPoint" />
          </mxGeometry>
        </mxCell>
        <mxCell id="3fjzQiBei5Zrd4goEmmM-183" value="&lt;font face=&quot;Times New Roman&quot;&gt;ConditionalInstanceNorm2dPlus&lt;/font&gt;" style="rounded=1;whiteSpace=wrap;html=1;" vertex="1" parent="1">
          <mxGeometry x="1142" y="46.76999999999998" width="189" height="34" as="geometry" />
        </mxCell>
        <mxCell id="3fjzQiBei5Zrd4goEmmM-184" style="edgeStyle=orthogonalEdgeStyle;rounded=1;orthogonalLoop=1;jettySize=auto;html=1;exitX=0.5;exitY=1;exitDx=0;exitDy=0;entryX=0.5;entryY=0;entryDx=0;entryDy=0;" edge="1" parent="1" source="3fjzQiBei5Zrd4goEmmM-185" target="3fjzQiBei5Zrd4goEmmM-193">
          <mxGeometry relative="1" as="geometry" />
        </mxCell>
        <mxCell id="3fjzQiBei5Zrd4goEmmM-185" value="&lt;font face=&quot;Times New Roman&quot;&gt;Dilated_Conv(3.3,d=4)&lt;/font&gt;" style="rounded=1;whiteSpace=wrap;html=1;" vertex="1" parent="1">
          <mxGeometry x="1178.13" y="147.26999999999998" width="116.75" height="37" as="geometry" />
        </mxCell>
        <mxCell id="3fjzQiBei5Zrd4goEmmM-186" value="&lt;font style=&quot;font-size: 9px;&quot;&gt;&lt;span style=&quot;font-size: 9px;&quot;&gt;InC=2ngf&lt;/span&gt;&lt;/font&gt;&lt;div style=&quot;font-size: 9px;&quot;&gt;&lt;font style=&quot;font-size: 9px;&quot;&gt;&lt;span style=&quot;font-size: 9px;&quot;&gt;OutC=2ngf&lt;/span&gt;&lt;/font&gt;&lt;/div&gt;" style="text;html=1;align=center;verticalAlign=middle;resizable=0;points=[];autosize=1;strokeColor=none;fillColor=none;fontSize=9;rounded=1;labelBackgroundColor=none;" vertex="1" parent="1">
          <mxGeometry x="1287.5" y="148.76999999999998" width="62" height="34" as="geometry" />
        </mxCell>
        <mxCell id="3fjzQiBei5Zrd4goEmmM-187" style="edgeStyle=orthogonalEdgeStyle;rounded=1;orthogonalLoop=1;jettySize=auto;html=1;exitX=0.5;exitY=1;exitDx=0;exitDy=0;entryX=0.5;entryY=0;entryDx=0;entryDy=0;" edge="1" parent="1" source="3fjzQiBei5Zrd4goEmmM-188" target="3fjzQiBei5Zrd4goEmmM-185">
          <mxGeometry relative="1" as="geometry" />
        </mxCell>
        <mxCell id="3fjzQiBei5Zrd4goEmmM-188" value="&lt;font face=&quot;Times New Roman&quot;&gt;ELU&lt;/font&gt;" style="rounded=1;whiteSpace=wrap;html=1;" vertex="1" parent="1">
          <mxGeometry x="1202" y="100.76999999999998" width="69" height="26" as="geometry" />
        </mxCell>
        <mxCell id="3fjzQiBei5Zrd4goEmmM-189" value="" style="endArrow=classic;html=1;rounded=1;fontSize=12;startSize=8;endSize=8;labelBackgroundColor=none;fontColor=default;" edge="1" parent="1" source="3fjzQiBei5Zrd4goEmmM-203">
          <mxGeometry width="50" height="50" relative="1" as="geometry">
            <mxPoint x="1236" y="-41.739999999999995" as="sourcePoint" />
            <mxPoint x="1235.9099999999999" y="46.76999999999998" as="targetPoint" />
          </mxGeometry>
        </mxCell>
        <mxCell id="3fjzQiBei5Zrd4goEmmM-190" value="&lt;span style=&quot;font-size: 11px;&quot;&gt;labels&lt;/span&gt;" style="text;html=1;align=center;verticalAlign=middle;resizable=0;points=[];autosize=1;strokeColor=none;fillColor=none;fontSize=16;rounded=1;labelBackgroundColor=none;" vertex="1" parent="1">
          <mxGeometry x="1253.5" y="-7.230000000000018" width="47" height="31" as="geometry" />
        </mxCell>
        <mxCell id="3fjzQiBei5Zrd4goEmmM-191" value="" style="endArrow=classic;html=1;rounded=1;fontSize=12;startSize=8;endSize=8;labelBackgroundColor=none;fontColor=default;" edge="1" parent="1">
          <mxGeometry width="50" height="50" relative="1" as="geometry">
            <mxPoint x="1276.5" y="22.769999999999982" as="sourcePoint" />
            <mxPoint x="1276.5" y="46.76999999999998" as="targetPoint" />
          </mxGeometry>
        </mxCell>
        <mxCell id="3fjzQiBei5Zrd4goEmmM-192" style="edgeStyle=orthogonalEdgeStyle;rounded=1;orthogonalLoop=1;jettySize=auto;html=1;exitX=0.5;exitY=1;exitDx=0;exitDy=0;entryX=0.5;entryY=0;entryDx=0;entryDy=0;" edge="1" parent="1" source="3fjzQiBei5Zrd4goEmmM-193" target="3fjzQiBei5Zrd4goEmmM-195">
          <mxGeometry relative="1" as="geometry">
            <mxPoint x="1236.5" y="280.77" as="targetPoint" />
          </mxGeometry>
        </mxCell>
        <mxCell id="3fjzQiBei5Zrd4goEmmM-193" value="&lt;font face=&quot;Times New Roman&quot;&gt;ConditionalInstanceNorm2dPlus&lt;/font&gt;" style="rounded=1;whiteSpace=wrap;html=1;" vertex="1" parent="1">
          <mxGeometry x="1142" y="209.76999999999998" width="189" height="34" as="geometry" />
        </mxCell>
        <mxCell id="3fjzQiBei5Zrd4goEmmM-194" style="edgeStyle=orthogonalEdgeStyle;rounded=1;orthogonalLoop=1;jettySize=auto;html=1;exitX=0.5;exitY=1;exitDx=0;exitDy=0;entryX=0.5;entryY=0;entryDx=0;entryDy=0;" edge="1" parent="1" source="3fjzQiBei5Zrd4goEmmM-195" target="3fjzQiBei5Zrd4goEmmM-197">
          <mxGeometry relative="1" as="geometry" />
        </mxCell>
        <mxCell id="3fjzQiBei5Zrd4goEmmM-195" value="&lt;font face=&quot;Times New Roman&quot;&gt;ELU&lt;/font&gt;" style="rounded=1;whiteSpace=wrap;html=1;" vertex="1" parent="1">
          <mxGeometry x="1202" y="265.77" width="69" height="26" as="geometry" />
        </mxCell>
        <mxCell id="3fjzQiBei5Zrd4goEmmM-196" style="edgeStyle=elbowEdgeStyle;rounded=1;orthogonalLoop=1;jettySize=auto;html=1;exitX=0.5;exitY=1;exitDx=0;exitDy=0;entryX=0.5;entryY=0;entryDx=0;entryDy=0;" edge="1" parent="1" source="3fjzQiBei5Zrd4goEmmM-197" target="3fjzQiBei5Zrd4goEmmM-199">
          <mxGeometry relative="1" as="geometry" />
        </mxCell>
        <mxCell id="3fjzQiBei5Zrd4goEmmM-197" value="&lt;span style=&quot;font-family: &amp;quot;Times New Roman&amp;quot;;&quot;&gt;Dilated_Conv(3.3,d=4)&lt;/span&gt;" style="rounded=1;whiteSpace=wrap;html=1;" vertex="1" parent="1">
          <mxGeometry x="1179.26" y="314.77" width="114.5" height="37" as="geometry" />
        </mxCell>
        <mxCell id="3fjzQiBei5Zrd4goEmmM-198" value="&lt;font style=&quot;font-size: 9px;&quot;&gt;&lt;span style=&quot;font-size: 9px;&quot;&gt;InC=2ngf&lt;/span&gt;&lt;/font&gt;&lt;div style=&quot;font-size: 9px;&quot;&gt;&lt;font style=&quot;font-size: 9px;&quot;&gt;&lt;span style=&quot;font-size: 9px;&quot;&gt;OutC=2ngf&lt;/span&gt;&lt;/font&gt;&lt;/div&gt;" style="text;html=1;align=center;verticalAlign=middle;resizable=0;points=[];autosize=1;strokeColor=none;fillColor=none;fontSize=9;rounded=1;labelBackgroundColor=none;" vertex="1" parent="1">
          <mxGeometry x="1287.5" y="315.27" width="62" height="34" as="geometry" />
        </mxCell>
        <mxCell id="3fjzQiBei5Zrd4goEmmM-220" style="edgeStyle=elbowEdgeStyle;rounded=1;orthogonalLoop=1;jettySize=auto;html=1;exitX=0.5;exitY=1;exitDx=0;exitDy=0;entryX=0.5;entryY=0;entryDx=0;entryDy=0;" edge="1" parent="1" source="3fjzQiBei5Zrd4goEmmM-199" target="3fjzQiBei5Zrd4goEmmM-205">
          <mxGeometry relative="1" as="geometry" />
        </mxCell>
        <mxCell id="3fjzQiBei5Zrd4goEmmM-199" value="" style="shape=orEllipse;perimeter=ellipsePerimeter;whiteSpace=wrap;html=1;backgroundOutline=1;rounded=1;labelBackgroundColor=none;" vertex="1" parent="1">
          <mxGeometry x="1228.01" y="373.27" width="17" height="16" as="geometry" />
        </mxCell>
        <mxCell id="3fjzQiBei5Zrd4goEmmM-200" value="" style="endArrow=classic;html=1;rounded=1;fontSize=12;startSize=8;endSize=8;labelBackgroundColor=none;fontColor=default;entryX=0.5;entryY=0;entryDx=0;entryDy=0;" edge="1" parent="1" target="3fjzQiBei5Zrd4goEmmM-202">
          <mxGeometry width="50" height="50" relative="1" as="geometry">
            <mxPoint x="1236" y="-8.480000000000018" as="sourcePoint" />
            <mxPoint x="1414" y="173.51999999999998" as="targetPoint" />
            <Array as="points">
              <mxPoint x="1414" y="-8.480000000000018" />
            </Array>
          </mxGeometry>
        </mxCell>
        <mxCell id="3fjzQiBei5Zrd4goEmmM-201" style="edgeStyle=elbowEdgeStyle;rounded=1;orthogonalLoop=1;jettySize=auto;html=1;exitX=0.5;exitY=1;exitDx=0;exitDy=0;entryX=1;entryY=0.5;entryDx=0;entryDy=0;" edge="1" parent="1" source="3fjzQiBei5Zrd4goEmmM-202" target="3fjzQiBei5Zrd4goEmmM-199">
          <mxGeometry relative="1" as="geometry">
            <Array as="points">
              <mxPoint x="1413" y="304.02" />
            </Array>
          </mxGeometry>
        </mxCell>
        <mxCell id="3fjzQiBei5Zrd4goEmmM-202" value="&lt;span style=&quot;font-family: &amp;quot;Times New Roman&amp;quot;;&quot;&gt;Dilated_Conv(1.1,d=4)&lt;/span&gt;" style="rounded=1;whiteSpace=wrap;html=1;" vertex="1" parent="1">
          <mxGeometry x="1357" y="184.01999999999998" width="114.5" height="37" as="geometry" />
        </mxCell>
        <mxCell id="3fjzQiBei5Zrd4goEmmM-203" value="&lt;span style=&quot;font-size: 11px;&quot;&gt;X&lt;/span&gt;" style="text;html=1;align=center;verticalAlign=middle;resizable=0;points=[];autosize=1;strokeColor=none;fillColor=none;fontSize=16;rounded=1;labelBackgroundColor=none;" vertex="1" parent="1">
          <mxGeometry x="1224" y="-84.5" width="25" height="31" as="geometry" />
        </mxCell>
        <mxCell id="3fjzQiBei5Zrd4goEmmM-204" style="edgeStyle=orthogonalEdgeStyle;rounded=1;orthogonalLoop=1;jettySize=auto;html=1;exitX=0.5;exitY=1;exitDx=0;exitDy=0;entryX=0.5;entryY=0;entryDx=0;entryDy=0;" edge="1" parent="1" source="3fjzQiBei5Zrd4goEmmM-205" target="3fjzQiBei5Zrd4goEmmM-210">
          <mxGeometry relative="1" as="geometry">
            <mxPoint x="1236.5" y="482.5" as="targetPoint" />
          </mxGeometry>
        </mxCell>
        <mxCell id="3fjzQiBei5Zrd4goEmmM-205" value="&lt;font face=&quot;Times New Roman&quot;&gt;ConditionalInstanceNorm2dPlus&lt;/font&gt;" style="rounded=1;whiteSpace=wrap;html=1;" vertex="1" parent="1">
          <mxGeometry x="1142" y="413.5" width="189" height="34" as="geometry" />
        </mxCell>
        <mxCell id="3fjzQiBei5Zrd4goEmmM-206" style="edgeStyle=orthogonalEdgeStyle;rounded=1;orthogonalLoop=1;jettySize=auto;html=1;exitX=0.5;exitY=1;exitDx=0;exitDy=0;entryX=0.5;entryY=0;entryDx=0;entryDy=0;" edge="1" parent="1" source="3fjzQiBei5Zrd4goEmmM-207" target="3fjzQiBei5Zrd4goEmmM-212">
          <mxGeometry relative="1" as="geometry" />
        </mxCell>
        <mxCell id="3fjzQiBei5Zrd4goEmmM-207" value="&lt;font face=&quot;Times New Roman&quot;&gt;Dilated_Conv(3.3,d=4)&lt;/font&gt;" style="rounded=1;whiteSpace=wrap;html=1;" vertex="1" parent="1">
          <mxGeometry x="1178.13" y="514" width="116.75" height="37" as="geometry" />
        </mxCell>
        <mxCell id="3fjzQiBei5Zrd4goEmmM-208" value="&lt;font style=&quot;font-size: 9px;&quot;&gt;&lt;span style=&quot;font-size: 9px;&quot;&gt;InC=2ngf&lt;/span&gt;&lt;/font&gt;&lt;div style=&quot;font-size: 9px;&quot;&gt;&lt;font style=&quot;font-size: 9px;&quot;&gt;&lt;span style=&quot;font-size: 9px;&quot;&gt;OutC=2ngf&lt;/span&gt;&lt;/font&gt;&lt;/div&gt;" style="text;html=1;align=center;verticalAlign=middle;resizable=0;points=[];autosize=1;strokeColor=none;fillColor=none;fontSize=9;rounded=1;labelBackgroundColor=none;" vertex="1" parent="1">
          <mxGeometry x="1287.5" y="515.5" width="62" height="34" as="geometry" />
        </mxCell>
        <mxCell id="3fjzQiBei5Zrd4goEmmM-209" style="edgeStyle=orthogonalEdgeStyle;rounded=1;orthogonalLoop=1;jettySize=auto;html=1;exitX=0.5;exitY=1;exitDx=0;exitDy=0;entryX=0.5;entryY=0;entryDx=0;entryDy=0;" edge="1" parent="1" source="3fjzQiBei5Zrd4goEmmM-210" target="3fjzQiBei5Zrd4goEmmM-207">
          <mxGeometry relative="1" as="geometry" />
        </mxCell>
        <mxCell id="3fjzQiBei5Zrd4goEmmM-210" value="&lt;font face=&quot;Times New Roman&quot;&gt;ELU&lt;/font&gt;" style="rounded=1;whiteSpace=wrap;html=1;" vertex="1" parent="1">
          <mxGeometry x="1202" y="467.5" width="69" height="26" as="geometry" />
        </mxCell>
        <mxCell id="3fjzQiBei5Zrd4goEmmM-211" style="edgeStyle=orthogonalEdgeStyle;rounded=1;orthogonalLoop=1;jettySize=auto;html=1;exitX=0.5;exitY=1;exitDx=0;exitDy=0;entryX=0.5;entryY=0;entryDx=0;entryDy=0;" edge="1" parent="1" source="3fjzQiBei5Zrd4goEmmM-212" target="3fjzQiBei5Zrd4goEmmM-214">
          <mxGeometry relative="1" as="geometry">
            <mxPoint x="1236.5" y="647.5" as="targetPoint" />
          </mxGeometry>
        </mxCell>
        <mxCell id="3fjzQiBei5Zrd4goEmmM-212" value="&lt;font face=&quot;Times New Roman&quot;&gt;ConditionalInstanceNorm2dPlus&lt;/font&gt;" style="rounded=1;whiteSpace=wrap;html=1;" vertex="1" parent="1">
          <mxGeometry x="1142" y="576.5" width="189" height="34" as="geometry" />
        </mxCell>
        <mxCell id="3fjzQiBei5Zrd4goEmmM-213" style="edgeStyle=orthogonalEdgeStyle;rounded=1;orthogonalLoop=1;jettySize=auto;html=1;exitX=0.5;exitY=1;exitDx=0;exitDy=0;entryX=0.5;entryY=0;entryDx=0;entryDy=0;" edge="1" parent="1" source="3fjzQiBei5Zrd4goEmmM-214" target="3fjzQiBei5Zrd4goEmmM-216">
          <mxGeometry relative="1" as="geometry" />
        </mxCell>
        <mxCell id="3fjzQiBei5Zrd4goEmmM-214" value="&lt;font face=&quot;Times New Roman&quot;&gt;ELU&lt;/font&gt;" style="rounded=1;whiteSpace=wrap;html=1;" vertex="1" parent="1">
          <mxGeometry x="1202" y="632.5" width="69" height="26" as="geometry" />
        </mxCell>
        <mxCell id="3fjzQiBei5Zrd4goEmmM-215" style="edgeStyle=elbowEdgeStyle;rounded=1;orthogonalLoop=1;jettySize=auto;html=1;exitX=0.5;exitY=1;exitDx=0;exitDy=0;entryX=0.5;entryY=0;entryDx=0;entryDy=0;" edge="1" parent="1" source="3fjzQiBei5Zrd4goEmmM-216" target="3fjzQiBei5Zrd4goEmmM-219">
          <mxGeometry relative="1" as="geometry" />
        </mxCell>
        <mxCell id="3fjzQiBei5Zrd4goEmmM-216" value="&lt;span style=&quot;font-family: &amp;quot;Times New Roman&amp;quot;;&quot;&gt;Dilated_Conv(3.3,d=4)&lt;/span&gt;" style="rounded=1;whiteSpace=wrap;html=1;" vertex="1" parent="1">
          <mxGeometry x="1179.26" y="681.5" width="114.5" height="37" as="geometry" />
        </mxCell>
        <mxCell id="3fjzQiBei5Zrd4goEmmM-217" value="&lt;font style=&quot;font-size: 9px;&quot;&gt;&lt;span style=&quot;font-size: 9px;&quot;&gt;InC=2ngf&lt;/span&gt;&lt;/font&gt;&lt;div style=&quot;font-size: 9px;&quot;&gt;&lt;font style=&quot;font-size: 9px;&quot;&gt;&lt;span style=&quot;font-size: 9px;&quot;&gt;OutC=2ngf&lt;/span&gt;&lt;/font&gt;&lt;/div&gt;" style="text;html=1;align=center;verticalAlign=middle;resizable=0;points=[];autosize=1;strokeColor=none;fillColor=none;fontSize=9;rounded=1;labelBackgroundColor=none;" vertex="1" parent="1">
          <mxGeometry x="1287.5" y="682" width="62" height="34" as="geometry" />
        </mxCell>
        <mxCell id="3fjzQiBei5Zrd4goEmmM-218" style="edgeStyle=elbowEdgeStyle;rounded=1;orthogonalLoop=1;jettySize=auto;html=1;exitX=0.5;exitY=1;exitDx=0;exitDy=0;" edge="1" parent="1" source="3fjzQiBei5Zrd4goEmmM-219">
          <mxGeometry relative="1" as="geometry">
            <mxPoint x="1237" y="782.5" as="targetPoint" />
          </mxGeometry>
        </mxCell>
        <mxCell id="3fjzQiBei5Zrd4goEmmM-219" value="" style="shape=orEllipse;perimeter=ellipsePerimeter;whiteSpace=wrap;html=1;backgroundOutline=1;rounded=1;labelBackgroundColor=none;" vertex="1" parent="1">
          <mxGeometry x="1228.01" y="740" width="17" height="16" as="geometry" />
        </mxCell>
      </root>
    </mxGraphModel>
  </diagram>
</mxfile>
